<?xml version="1.0" encoding="utf-8"?>
<!-- Generator: Adobe Illustrator 16.0.0, SVG Export Plug-In . SVG Version: 6.00 Build 0)  -->
<!DOCTYPE svg PUBLIC "-//W3C//DTD SVG 1.1//EN" "http://www.w3.org/Graphics/SVG/1.1/DTD/svg11.dtd">
<svg version="1.1" id="Layer_1" xmlns="http://www.w3.org/2000/svg" xmlns:xlink="http://www.w3.org/1999/xlink" x="0px" y="0px"
	 width="960px" height="560px" viewBox="0 0 960 560" enable-background="new 0 0 960 560" xml:space="preserve">
<g>
	<g opacity="0.15">
		<path d="M455.222,382.104c13.921,13.195,31.183,12.268,45.656,7.807c18.931-4.459,21.158-16.729,34.522-25.648
			c11.137-6.694,23.383-1.115,28.953-14.499c3.342-10.035-4.456-22.303,2.228-32.342c7.794-14.493,21.155-14.493,22.272-33.453
			c1.11-20.073-14.479-22.302-20.048-35.684c-6.681-12.268,2.228-20.075-7.794-32.343c-7.795-11.15-38.839-37.27-53.317-40.615
			c-16.702-3.344-30.198,12.737-48.018,11.622c-17.815-1.114-32.535-15.771-50.354-9.08c-32.294,13.383-15.347,52.573-25.369,78.224
			c-12.25,27.877-14.542,41.326,1.049,66.975c6.681,12.268,10.085,26.697,17.881,36.733c11.133,17.848,23.383,10.039,40.089,14.499
			C447.428,375.411,451.79,378.853,455.222,382.104z"/>
		<path d="M454.89,378.981c13.611,12.925,30.488,12.014,44.639,7.645c18.515-4.367,20.691-16.382,33.759-25.122
			c10.888-6.551,22.862-1.092,28.306-14.197c3.268-9.829-4.354-21.845,2.181-31.673c7.62-14.198,20.685-14.198,21.778-32.768
			c1.087-19.657-14.158-21.844-19.602-34.949c-6.534-12.015,2.18-19.662-7.624-31.674c-7.621-10.923-39.196-34.95-53.352-38.226
			c-16.331-3.28-28.311,10.919-45.73,9.828c-17.42-1.093-30.486-14.199-47.909-7.646c-31.576,13.108-16.33,50.243-26.134,75.361
			c-11.974,27.305-11.974,40.412,3.269,65.532c6.535,12.016,7.624,26.214,15.244,36.046c10.886,17.473,22.865,9.828,39.197,14.195
			C447.266,372.428,451.538,375.795,454.89,378.981z"/>
		<circle cx="478.5" cy="281.441" r="83.086"/>
		<path d="M565.546,255.896c-1.186-3.921-1.186-8.234-2.375-12.545c-1.58-5.489-5.141-9.02-8.697-13.33
			c-4.35-5.882-7.119-10.195-13.054-14.508c-5.141-3.92-8.697-10.192-14.232-12.544c-4.354-2.354-8.704-2.746-13.055-5.882
			c-3.955-2.353-8.302-6.666-13.051-8.625c-8.697-3.136-25.459-0.519-34.95,0.658c-22.937,3.528-50.234,3.504-62.889,22.325
			c-5.933,8.233-8.939,26.809-12.894,35.826c-3.557,8.625-4.349,18.428-5.536,27.445h-0.024
			c-1.976,10.193-0.372,26.268,1.604,36.461c3.955,15.684,18.195,24.31,28.476,36.07c7.515,8.624,15.424,14.506,25.31,20.779
			c9.493,6.272,21.143,16.84,32.215,16.84c11.075,0,18.576-3.907,28.859-6.261c11.865-2.353,19.517-10.638,29.402-17.697
			c9.437-6.626,19.233-4.877,24.776-14.156c5.607-9.389-1.908-13.611,10.904-40.672c3.56-7.519,6.329-15.289,6.329-23.526
			C572.665,272.362,569.105,265.306,565.546,255.896z M478.512,368.421c-47.958,0-86.838-38.54-86.838-86.087
			c0-47.542,38.879-86.085,86.838-86.085c47.96,0,86.836,38.543,86.836,86.085C565.348,329.881,526.472,368.421,478.512,368.421z"/>
		<path d="M397.044,281.441c0-44.986,36.473-81.454,81.457-81.454c44.986,0,81.458,36.468,81.458,81.454
			c0,44.99-36.472,81.461-81.458,81.461C433.517,362.902,397.044,326.432,397.044,281.441z"/>
		<path d="M404.45,281.441c0-40.896,33.155-74.051,74.051-74.051c40.898,0,74.051,33.155,74.051,74.051
			c0,40.9-33.153,74.055-74.051,74.055C437.605,355.496,404.45,322.342,404.45,281.441z"/>
		<circle cx="478.501" cy="281.441" r="72.571"/>
		<path d="M559.097,256.677c-1.101-3.663-1.101-7.69-2.197-11.72c-1.465-5.128-4.763-8.422-8.057-12.452
			c-4.033-5.494-6.595-9.522-12.087-13.551c-4.762-3.662-8.057-9.522-13.187-11.719c-4.03-2.2-8.057-2.564-12.087-5.497
			c-3.662-2.195-7.692-6.225-12.087-8.056c-8.055-2.93-23.436-1.833-32.228-0.732c-21.242,3.297-41.019,13.552-52.739,31.131
			c-5.493,7.691-13.918,16.116-17.582,24.54c-3.296,8.057-4.028,17.215-5.125,25.637h-0.023c-1.83,9.523-0.344,24.54,1.488,34.063
			c3.661,14.649,16.846,22.706,26.369,33.694c6.958,8.055,14.286,13.552,23.439,19.413c8.792,5.857,17.422,11.007,27.676,11.007
			c10.255,0,20.971-1.068,30.49-3.268c10.99-2.197,18.43-9.38,27.591-15.972c8.561-6.063,17.963-3.946,30.128-37.388
			c2.565-7.326,6.81-26.532,6.81-34.225C565.688,272.06,562.395,265.468,559.097,256.677z M478.498,361.799
			c-44.419,0-80.423-36.008-80.423-80.424c0-44.414,36.004-80.419,80.423-80.419c44.41,0,80.415,36.006,80.415,80.419
			C558.913,325.791,522.908,361.799,478.498,361.799z"/>
		<path d="M411.774,181.134c0,0,8.024-5.459,25.5,1.359c11.218,4.382,14.155,4.355,14.155,4.355s-7.256,4.313-17.604-0.451
			C433.825,186.397,425.794,181.769,411.774,181.134z"/>
		<path d="M477.568,185.49c0,0,19.784-10.709,29.765-5.265c0,0-9.439-2.358-16.152,0.909
			C484.463,184.401,477.568,185.49,477.568,185.49z"/>
		<path d="M397.119,231.047c0,0,1.507-12.831,9.486-21.868c6.662-7.546,20.184-14.367,29.717-14.474c0,0-17.28,6.579-25.429,12.68
			c-2.98,2.231-7.563,8.241-8.947,11.843C401.691,219.895,399.696,224.252,397.119,231.047z"/>
		<path d="M562.146,334.684c0,0,2.722,14.882-6.35,20.146c-9.079,5.265-10.165,2.722-10.165,2.722s7.984,0,12.522-6.713
			C562.69,344.122,562.146,336.679,562.146,334.684z"/>
		<path d="M380.013,273.607c0,0-7.259,20.692,5.081,41.02c0,0-3.812-13.432-4.9-17.244
			C379.104,293.572,377.652,285.041,380.013,273.607z"/>
		<path d="M404.89,357.013c0,0,4.943,10.11,20.493,11.6C425.382,368.612,412.894,372.598,404.89,357.013z"/>
		<path d="M534.286,351.381c0,0,2.688,0.563,8.401-4.242c4.734-3.984,8.911-11.559,10.383-13.183c0,0-7.624,12.251-9.804,14.022
			C541.416,349.483,537.009,352.74,534.286,351.381z"/>
		<path d="M572.312,258.68c0,0,12.25,6.943,12.25,20.692c0,0-2.044-11.026-9.665-17.288
			C574.896,262.083,569.177,258.135,572.312,258.68z"/>
		<path d="M561.965,232.95c0,0,1.904-11.706-7.352-18.511C554.613,214.439,561.692,220.428,561.965,232.95z"/>
		<path d="M570.676,287.854c-0.808,6.146-3.015,14.609-3.015,14.609s5.795-13.492,4.146-21.111
			C570.966,277.471,571.514,281.475,570.676,287.854z"/>
		<path d="M489.729,387.498c0,0,15.243-1.632,22.687-8.348c0,0-10.526,5.445-12.887,5.629
			C497.168,384.957,490.091,386.41,489.729,387.498z"/>
		<path d="M483.014,369.893c0,0,22.143-0.361,31.579-8.348C514.593,361.545,509.149,366.265,483.014,369.893z"/>
		<path d="M498.65,375.438c-6.738,1.824-13.142,2.59-18.858,2.624c-3.948,0.024-15.609-3.642-0.617-3.556
			c0,0,20.537-1.757,24.424-3.41c0.116-0.052,8.384-3.223,8.5-3.197C516.801,368.886,508.141,372.867,498.65,375.438z"/>
	</g>
	<g>
		<path fill="#9A1C20" d="M455.222,375.127c13.921,13.195,31.183,12.268,45.656,7.807c18.931-4.46,21.158-16.729,34.522-25.648
			c11.137-6.694,23.383-1.116,28.953-14.499c3.342-10.036-4.456-22.303,2.228-32.342c7.794-14.494,21.155-14.494,22.272-33.454
			c1.11-20.072-14.479-22.301-20.048-35.684c-6.681-12.267,2.228-20.074-7.794-32.342c-7.795-11.151-38.839-37.27-53.317-40.615
			c-16.702-3.345-30.198,12.736-48.018,11.622c-17.815-1.114-32.535-15.772-50.354-9.08c-32.294,13.383-15.347,52.573-25.369,78.223
			c-12.25,27.876-14.542,41.327,1.049,66.975c6.681,12.267,10.085,26.697,17.881,36.733c11.133,17.848,23.383,10.039,40.089,14.498
			C447.428,368.435,451.79,371.875,455.222,375.127z"/>
		
			<radialGradient id="SVGID_1_" cx="475.9951" cy="278.9976" r="116.5168" gradientTransform="matrix(1.0317 0 0 1.0349 -12.5254 -7.3569)" gradientUnits="userSpaceOnUse">
			<stop  offset="0.4775" style="stop-color:#EC1C24"/>
			<stop  offset="0.7753" style="stop-color:#961B1E"/>
			<stop  offset="1" style="stop-color:#D9383C"/>
		</radialGradient>
		<path fill="url(#SVGID_1_)" d="M454.89,372.005c13.611,12.925,30.488,12.014,44.639,7.645
			c18.515-4.367,20.691-16.383,33.759-25.122c10.888-6.551,22.862-1.092,28.306-14.197c3.268-9.83-4.354-21.845,2.181-31.673
			c7.62-14.199,20.685-14.199,21.778-32.768c1.087-19.657-14.158-21.843-19.602-34.949c-6.534-12.015,2.18-19.661-7.624-31.674
			c-7.621-10.923-39.196-34.95-53.352-38.226c-16.331-3.28-28.311,10.919-45.73,9.828c-17.42-1.093-30.486-14.199-47.909-7.646
			c-31.576,13.108-16.33,50.243-26.134,75.361c-11.974,27.305-11.974,40.412,3.269,65.532c6.535,12.016,7.624,26.214,15.244,36.046
			c10.886,17.472,22.865,9.828,39.197,14.195C447.266,365.45,451.538,368.818,454.89,372.005z"/>
		<linearGradient id="SVGID_2_" gradientUnits="userSpaceOnUse" x1="514.9365" y1="349.1592" x2="442.3368" y2="200.3294">
			<stop  offset="0.0056" style="stop-color:#CA4849"/>
			<stop  offset="0.4213" style="stop-color:#C0272D"/>
			<stop  offset="1" style="stop-color:#730B0D"/>
		</linearGradient>
		<circle fill="url(#SVGID_2_)" cx="478.5" cy="274.465" r="83.086"/>
		
			<radialGradient id="SVGID_3_" cx="478.6572" cy="296.7266" r="114.6349" gradientTransform="matrix(1 0 0 0.9914 0 4.1768)" gradientUnits="userSpaceOnUse">
			<stop  offset="0.618" style="stop-color:#6C0607"/>
			<stop  offset="0.9944" style="stop-color:#B12328"/>
		</radialGradient>
		<path fill="url(#SVGID_3_)" d="M565.546,248.919c-1.186-3.921-1.186-8.234-2.375-12.545c-1.58-5.489-5.141-9.02-8.697-13.33
			c-4.35-5.882-7.119-10.195-13.054-14.508c-5.141-3.92-8.697-10.193-14.232-12.544c-4.354-2.354-8.704-2.746-13.055-5.883
			c-3.955-2.353-8.302-6.666-13.051-8.625c-8.697-3.136-25.459-0.519-34.95,0.659c-22.937,3.528-50.234,3.504-62.889,22.325
			c-5.933,8.233-8.939,26.809-12.894,35.826c-3.557,8.625-4.349,18.428-5.536,27.445h-0.024c-1.976,10.192-0.372,26.268,1.604,36.46
			c3.955,15.685,18.195,24.311,28.476,36.071c7.515,8.624,15.424,14.506,25.31,20.778c9.493,6.273,21.143,16.841,32.215,16.841
			c11.075,0,18.576-3.907,28.859-6.261c11.865-2.353,19.517-10.638,29.402-17.698c9.437-6.625,19.233-4.876,24.776-14.155
			c5.607-9.389-1.908-13.611,10.904-40.672c3.56-7.519,6.329-15.289,6.329-23.525C572.665,265.386,569.105,258.329,565.546,248.919z
			 M478.512,361.444c-47.958,0-86.838-38.541-86.838-86.087c0-47.542,38.879-86.086,86.838-86.086
			c47.96,0,86.836,38.543,86.836,86.086C565.348,322.903,526.472,361.444,478.512,361.444z"/>
		
			<radialGradient id="SVGID_4_" cx="459.2144" cy="285.0889" r="81.4578" gradientTransform="matrix(-1 0 0 -1 937.7158 559.5566)" gradientUnits="userSpaceOnUse">
			<stop  offset="0.8764" style="stop-color:#C0272D"/>
			<stop  offset="1" style="stop-color:#831416"/>
		</radialGradient>
		<path fill="url(#SVGID_4_)" d="M397.044,274.465c0-44.986,36.473-81.455,81.457-81.455c44.986,0,81.458,36.469,81.458,81.455
			c0,44.989-36.472,81.461-81.458,81.461C433.517,355.926,397.044,319.454,397.044,274.465z"/>
		<linearGradient id="SVGID_5_" gradientUnits="userSpaceOnUse" x1="510.8408" y1="341.3262" x2="446.2262" y2="207.7411">
			<stop  offset="0.0056" style="stop-color:#CA4849"/>
			<stop  offset="0.4213" style="stop-color:#C0272D"/>
			<stop  offset="1" style="stop-color:#651116"/>
		</linearGradient>
		<path fill="url(#SVGID_5_)" d="M404.45,274.465c0-40.896,33.155-74.051,74.051-74.051c40.898,0,74.051,33.155,74.051,74.051
			c0,40.9-33.153,74.055-74.051,74.055C437.605,348.52,404.45,315.365,404.45,274.465z"/>
		
			<radialGradient id="SVGID_6_" cx="472.3496" cy="324.2744" r="110.9994" gradientTransform="matrix(-1 0 0 -1 937.7158 559.5566)" gradientUnits="userSpaceOnUse">
			<stop  offset="0" style="stop-color:#C5263B"/>
			<stop  offset="1" style="stop-color:#910D10"/>
		</radialGradient>
		<circle fill="url(#SVGID_6_)" cx="478.501" cy="274.465" r="72.571"/>
		<linearGradient id="SVGID_7_" gradientUnits="userSpaceOnUse" x1="515.0264" y1="353.6475" x2="439.9193" y2="196.7069">
			<stop  offset="0.0169" style="stop-color:#B12328"/>
			<stop  offset="0.0955" style="stop-color:#D9383C"/>
			<stop  offset="0.9944" style="stop-color:#651116"/>
		</linearGradient>
		<path fill="url(#SVGID_7_)" d="M559.097,249.701c-1.101-3.663-1.101-7.69-2.197-11.72c-1.465-5.128-4.763-8.422-8.057-12.452
			c-4.033-5.494-6.595-9.522-12.087-13.552c-4.762-3.661-8.057-9.522-13.187-11.719c-4.03-2.2-8.057-2.564-12.087-5.497
			c-3.662-2.195-7.692-6.225-12.087-8.056c-8.055-2.93-23.436-1.833-32.228-0.732c-21.242,3.297-41.019,13.551-52.739,31.13
			c-5.493,7.691-13.918,16.116-17.582,24.54c-3.296,8.058-4.028,17.215-5.125,25.637h-0.023c-1.83,9.523-0.344,24.54,1.488,34.063
			c3.661,14.65,16.846,22.707,26.369,33.695c6.958,8.055,14.286,13.552,23.439,19.412c8.792,5.858,17.422,11.007,27.676,11.007
			c10.255,0,20.971-1.067,30.49-3.267c10.99-2.197,18.43-9.38,27.591-15.972c8.561-6.064,17.963-3.947,30.128-37.388
			c2.565-7.326,6.81-26.532,6.81-34.224C565.688,265.083,562.395,258.491,559.097,249.701z M478.498,354.822
			c-44.419,0-80.423-36.008-80.423-80.424c0-44.414,36.004-80.42,80.423-80.42c44.41,0,80.415,36.006,80.415,80.42
			C558.913,318.814,522.908,354.822,478.498,354.822z"/>
		<path fill="#F48E84" d="M411.774,174.157c0,0,8.024-5.459,25.5,1.359c11.218,4.382,14.155,4.355,14.155,4.355
			s-7.256,4.313-17.604-0.452C433.825,179.42,425.794,174.792,411.774,174.157z"/>
		<path fill="#F59085" d="M477.568,178.514c0,0,19.784-10.709,29.765-5.265c0,0-9.439-2.358-16.152,0.909
			C484.463,177.424,477.568,178.514,477.568,178.514z"/>
		<path fill="#9B1D20" d="M397.119,224.07c0,0,1.507-12.831,9.486-21.868c6.662-7.545,20.184-14.366,29.717-14.474
			c0,0-17.28,6.579-25.429,12.679c-2.98,2.231-7.563,8.242-8.947,11.843C401.691,212.918,399.696,217.276,397.119,224.07z"/>
		<path fill="#CA4849" d="M562.146,327.707c0,0,2.722,14.882-6.35,20.145c-9.079,5.266-10.165,2.723-10.165,2.723
			s7.984,0,12.522-6.713C562.69,337.145,562.146,329.701,562.146,327.707z"/>
		<path fill="#F59085" d="M380.013,266.631c0,0-7.259,20.692,5.081,41.02c0,0-3.812-13.432-4.9-17.244
			C379.104,286.596,377.652,278.064,380.013,266.631z"/>
		<path fill="#F59085" d="M404.89,350.035c0,0,4.943,10.111,20.493,11.6C425.382,361.635,412.894,365.621,404.89,350.035z"/>
		<path fill="#651116" d="M534.286,344.404c0,0,2.688,0.563,8.401-4.243c4.734-3.983,8.911-11.559,10.383-13.182
			c0,0-7.624,12.25-9.804,14.021C541.416,342.507,537.009,345.764,534.286,344.404z"/>
		<path fill="#F59085" d="M572.312,251.703c0,0,12.25,6.943,12.25,20.691c0,0-2.044-11.026-9.665-17.288
			C574.896,255.107,569.177,251.159,572.312,251.703z"/>
		<path fill="#F59085" d="M561.965,225.974c0,0,1.904-11.706-7.352-18.512C554.613,207.462,561.692,213.451,561.965,225.974z"/>
		<path fill="#B12328" d="M570.676,280.879c-0.808,6.145-3.015,14.608-3.015,14.608s5.795-13.492,4.146-21.112
			C570.966,270.494,571.514,274.498,570.676,280.879z"/>
		<path fill="#DB726F" d="M489.729,380.521c0,0,15.243-1.632,22.687-8.348c0,0-10.526,5.445-12.887,5.629
			C497.168,377.98,490.091,379.433,489.729,380.521z"/>
		<path fill="#F59085" d="M483.014,362.916c0,0,22.143-0.361,31.579-8.348C514.593,354.568,509.149,359.288,483.014,362.916z"/>
		<path fill="#651116" d="M498.65,368.46c-6.738,1.824-13.142,2.591-18.858,2.625c-3.948,0.024-15.609-3.642-0.617-3.557
			c0,0,20.537-1.756,24.424-3.41c0.116-0.051,8.384-3.223,8.5-3.196C516.801,361.909,508.141,365.89,498.65,368.46z"/>
	</g>
</g>
<g>
	<path fill-rule="evenodd" clip-rule="evenodd" d="M483.128,308.426c-3.057,0.558-6.094,1.377-9.177,1.631
		c-18.103,1.492-33.456-3.872-44.654-18.74c-6.437-8.545-8.106-18.254-6.48-28.785c1.683-10.896,5.431-20.819,12.487-29.353
		c8.77-10.606,20.136-16.928,33.519-19.586c15.261-3.031,30.186-1.885,44.416,4.729c3.254,1.512,6.193,3.737,9.149,5.815
		c0.61,0.429,1.13,1.836,0.887,2.503c-2.525,6.979-5.216,13.898-7.98,21.152c-5.311-4.72-11.159-8.09-17.726-9.953
		c-14.103-4.002-27.212-2.517-38.054,8.251c-6.763,6.717-9.257,15.362-9.393,24.684c-0.198,13.548,4.324,24.822,16.36,32.166
		C471.542,306.027,477.196,307.353,483.128,308.426z"/>
	<path fill-rule="evenodd" clip-rule="evenodd" d="M424.268,288.851c16.69,35.542,74.826,36.587,92.305,7.15
		c0.432,0.801,0.853,1.455,1.155,2.16c2.354,5.467,4.602,10.981,7.073,16.394c0.809,1.772,0.505,2.812-0.867,4.067
		c-8.173,7.484-17.87,11.65-28.724,13.204c-16.631,2.379-32.533,0.368-46.992-8.754C435.488,315.04,427.73,303.406,424.268,288.851z
		"/>
</g>
<g>
	<radialGradient id="SVGID_8_" cx="471.7856" cy="261.1484" r="49.8543" gradientUnits="userSpaceOnUse">
		<stop  offset="0" style="stop-color:#8E1018"/>
		<stop  offset="1" style="stop-color:#700000"/>
	</radialGradient>
	<path fill-rule="evenodd" clip-rule="evenodd" fill="url(#SVGID_8_)" d="M482.128,308.426c-3.057,0.558-6.094,1.377-9.177,1.631
		c-18.103,1.492-33.456-3.872-44.654-18.74c-6.437-8.545-8.106-18.254-6.48-28.785c1.683-10.896,5.431-20.819,12.487-29.353
		c8.77-10.606,20.136-16.928,33.519-19.586c15.261-3.031,30.186-1.885,44.416,4.729c3.254,1.512,6.193,3.737,9.149,5.815
		c0.61,0.429,1.13,1.836,0.887,2.503c-2.525,6.979-5.216,13.898-7.98,21.152c-5.311-4.72-11.159-8.09-17.726-9.953
		c-14.103-4.002-27.212-2.517-38.054,8.251c-6.763,6.717-9.257,15.362-9.393,24.684c-0.198,13.548,4.324,24.822,16.36,32.166
		C470.542,306.027,476.196,307.353,482.128,308.426z"/>
	<radialGradient id="SVGID_9_" cx="473.7568" cy="310.7979" r="38.9278" gradientUnits="userSpaceOnUse">
		<stop  offset="0" style="stop-color:#8E1018"/>
		<stop  offset="1" style="stop-color:#700000"/>
	</radialGradient>
	<path fill-rule="evenodd" clip-rule="evenodd" fill="url(#SVGID_9_)" d="M423.268,288.851c16.69,35.542,74.826,36.587,92.305,7.15
		c0.432,0.801,0.853,1.455,1.155,2.16c2.354,5.467,4.602,10.981,7.073,16.394c0.809,1.772,0.505,2.812-0.867,4.067
		c-8.173,7.484-17.87,11.65-28.724,13.204c-16.631,2.379-32.533,0.368-46.992-8.754C434.488,315.04,426.73,303.406,423.268,288.851z
		"/>
</g>
<radialGradient id="SVGID_10_" cx="322.958" cy="412.1143" r="13.441" gradientUnits="userSpaceOnUse">
	<stop  offset="0" style="stop-color:#8E1018"/>
	<stop  offset="1" style="stop-color:#700000"/>
</radialGradient>
<path fill="url(#SVGID_10_)" d="M333.428,399.645h1.704v4.521h-1.704c-1.09-1.066-2.482-1.831-4.174-2.295
	c-1.345-0.371-2.644-0.557-3.896-0.557c-2.458,0-4.406,0.729-5.844,2.188c-1.438,1.459-2.157,3.473-2.157,6.042
	c0,0.996,0.041,1.899,0.122,2.71c0.081,0.81,0.249,1.597,0.504,2.36c0.881,2.709,2.388,4.746,4.521,6.112
	c2.041,1.297,4.545,1.944,7.513,1.944c0.603,0,1.275-0.091,2.018-0.272c1.484-0.295,2.806-0.749,3.965-1.362l0.8,1.448
	c-1.762,0.943-3.942,1.668-6.539,2.174c-1.021,0.184-1.6,0.287-1.739,0.311c-0.695,0.114-1.31,0.172-1.843,0.172
	c-11.71,0-17.565-4.318-17.565-12.957c0-3.913,1.362-7.074,4.087-9.483c2.725-2.408,6.452-3.612,11.183-3.612
	c1.09,0,2.226,0.075,3.409,0.227c1.183,0.15,2.214,0.33,3.096,0.539l0.139,0.034l0.661,0.174c0.348,0.07,0.626,0.104,0.834,0.104
	c0.301,0,0.568-0.127,0.8-0.383L333.428,399.645z"/>
<radialGradient id="SVGID_11_" cx="345.4795" cy="416.7227" r="8.479" gradientUnits="userSpaceOnUse">
	<stop  offset="0" style="stop-color:#8E1018"/>
	<stop  offset="1" style="stop-color:#700000"/>
</radialGradient>
<path fill="url(#SVGID_11_)" d="M336.94,420.032l1.217-0.77l0.278,0.348l0.348,0.417c0.719,0.835,1.467,1.508,2.244,2.018
	c0.777,0.511,1.56,0.858,2.348,1.044c0.324,0.093,0.672,0.162,1.043,0.208c0.371,0.047,0.695,0.07,0.974,0.07
	c0.394,0,0.742-0.041,1.043-0.122c0.301-0.082,0.545-0.203,0.73-0.366c0.348-0.279,0.522-0.604,0.522-0.977
	c0-0.488-0.29-0.918-0.87-1.29l-0.835-0.558l-0.278-0.175c-0.765-0.464-1.415-0.871-1.948-1.22c-0.208-0.14-0.638-0.43-1.287-0.872
	c-1.577-1.115-2.551-1.83-2.921-2.144c-0.372-0.313-0.673-0.68-0.904-1.098c-0.417-0.744-0.626-1.477-0.626-2.197
	c0-0.859,0.284-1.621,0.853-2.283c0.568-0.662,1.362-1.133,2.382-1.412c0.325-0.093,0.707-0.174,1.148-0.244
	c0.44-0.069,0.939-0.104,1.496-0.104c0.231,0,0.603,0,1.113,0c0.51,0,0.916,0,1.217,0l1.009,0.278h0.139l0.974,0.209l0.452,0.069
	c0.093,0.023,0.174,0.034,0.244,0.034c0.07,0,0.116,0,0.139,0c0.278,0,0.522-0.157,0.73-0.473l0.069-0.118h1.531l1.565,3.742
	l-1.252,0.953l-0.244-0.281l-0.278-0.282l-0.626-0.599c-1.113-0.916-2.25-1.444-3.409-1.585h-0.313h-0.278h-0.244h-0.382
	c-0.209,0.022-0.383,0.081-0.522,0.174c-0.139,0.069-0.208,0.197-0.208,0.384c0,0.116,0.058,0.232,0.174,0.349
	c0.092,0.116,0.266,0.256,0.522,0.418l0.974,0.593l0.209,0.14l1.113,0.662l0.8,0.488l0.661,0.419
	c1.692,1.115,2.823,2.063,3.392,2.841c0.568,0.779,0.852,1.737,0.852,2.876c0,1.721-0.528,3.074-1.583,4.063
	c-1.056,0.988-2.638,1.481-4.748,1.481c-0.348,0-0.615,0-0.8,0c-0.534,0-1.055-0.012-1.565-0.035
	c-0.51-0.023-1.09-0.081-1.739-0.174l-0.73-0.104l-0.661-0.139c-0.163-0.046-0.377-0.039-0.644,0.021
	c-0.267,0.062-0.47,0.142-0.609,0.242l-0.069,0.075l-0.104,0.113h-1.565L336.94,420.032z"/>
<radialGradient id="SVGID_12_" cx="361.5142" cy="412.9668" r="9.789" gradientUnits="userSpaceOnUse">
	<stop  offset="0" style="stop-color:#8E1018"/>
	<stop  offset="1" style="stop-color:#700000"/>
</radialGradient>
<path fill="url(#SVGID_12_)" d="M354.923,410.706v-1.774h2.052v-4.926c0.857-0.069,1.652-0.285,2.383-0.646
	c0.73-0.36,1.687-1.03,2.87-2.008l0.626-0.56h1.53v8.14h2.853v1.774h-2.853v9.265v0.657l0.07,0.761
	c0.069,0.484,0.359,0.726,0.87,0.726c0.092,0,0.208,0,0.348,0l0.313-0.178c0.208-0.144,0.359-0.298,0.452-0.465l0.104-0.179
	l0.069-0.214l0.07-0.178l0.035-0.144l1.391,0.621c-0.162,1.128-0.725,2.036-1.687,2.727s-2.232,1.035-3.809,1.035
	c-0.208,0-0.406,0-0.591,0c-0.278-0.046-0.487-0.069-0.626-0.069c-2.991-0.347-4.487-2.088-4.487-5.227v-9.139H354.923z"/>
<radialGradient id="SVGID_13_" cx="378.5752" cy="416.9844" r="9.1155" gradientUnits="userSpaceOnUse">
	<stop  offset="0" style="stop-color:#8E1018"/>
	<stop  offset="1" style="stop-color:#700000"/>
</radialGradient>
<path fill="url(#SVGID_13_)" d="M379.862,415.749v-0.452v-0.591c-0.164-1.299-0.636-2.308-1.418-3.026
	c-0.782-0.719-1.792-1.078-3.029-1.078c-0.164,0-0.338,0.012-0.525,0.034c-0.187,0.023-0.443,0.053-0.77,0.087
	c-0.327,0.035-0.701,0.157-1.121,0.365c-1.027,0.487-1.728,1.16-2.102,2.018l-1.4-0.417l1.287-3.583
	c0.765-0.092,1.496-0.162,2.191-0.209c0.695-0.046,1.461-0.069,2.295-0.069c4.475,0,7.594,0.593,9.357,1.778
	c1.762,1.187,2.644,3.243,2.644,6.172v4.149v0.663c0,0.581,0.313,1.034,0.939,1.359l0.174,0.069h0.174v1.67h-7.764l-0.932-1.565
	c-0.91,1.346-2.45,2.018-4.62,2.018c-0.63,0-1.33-0.069-2.1-0.209c-1.19-0.208-2.165-0.666-2.923-1.374
	c-0.758-0.707-1.253-1.617-1.487-2.73c-0.047-0.185-0.082-0.399-0.105-0.644c-0.023-0.243-0.035-0.457-0.035-0.643
	c0-1.554,0.626-2.777,1.878-3.67c1.252-0.893,3.038-1.339,5.356-1.339c0.696,0,1.385,0.104,2.07,0.313
	C378.581,415.054,379.236,415.355,379.862,415.749z M379.758,417.662c-0.325-0.162-0.644-0.278-0.957-0.348
	s-0.551-0.104-0.713-0.104c-1.136,0-1.809,0.615-2.017,1.844v0.939c0.208,0.928,0.765,1.473,1.669,1.635
	c0.487,0.093,1.055-0.047,1.705-0.418l0.174-0.104l0.104-0.104l0.139-0.139v-3.131L379.758,417.662z"/>
<radialGradient id="SVGID_14_" cx="404.4712" cy="416.4971" r="12.0475" gradientUnits="userSpaceOnUse">
	<stop  offset="0" style="stop-color:#8E1018"/>
	<stop  offset="1" style="stop-color:#700000"/>
</radialGradient>
<path fill="url(#SVGID_14_)" d="M389.532,410.535v-1.639h8.974v1.079l0.522-0.278c0.742-0.371,1.432-0.667,2.069-0.888
	c0.638-0.22,1.2-0.365,1.687-0.435c0.186,0,0.388-0.012,0.609-0.034c0.22-0.023,0.376-0.035,0.47-0.035
	c1.553,0,2.713,0.499,3.478,1.495l0.174,0.209l0.139,0.209l0.696-0.452c0.557-0.324,1.159-0.614,1.809-0.87
	c1.043-0.394,2.064-0.591,3.061-0.591c1.484,0,2.678,0.431,3.583,1.293c0.905,0.862,1.357,2.027,1.357,3.495l0.035,1.188v6.64v0.769
	c0.023,0.28,0.127,0.548,0.313,0.804c0.231,0.233,0.417,0.385,0.557,0.455l0.174,0.069h0.174v1.67h-9.809v-1.67h0.143l0.144-0.069
	c0.55-0.278,0.826-0.672,0.826-1.183v-0.139v-0.661v-6.505c0-1.159-0.104-1.965-0.313-2.417s-0.568-0.679-1.078-0.679
	c-0.139,0.023-0.244,0.035-0.313,0.035l-0.243,0.069l-0.139,0.069l-0.139,0.104l-0.104,0.035v9.287v0.626v0.174
	c0.067,0.534,0.36,0.928,0.878,1.183l0.135,0.069h0.135v1.67h-9.739v-1.67h0.101l0.135-0.069c0.538-0.326,0.808-0.989,0.808-1.99
	v-6.671v-0.626v-0.521c0-0.557-0.149-0.968-0.448-1.235c-0.299-0.266-0.687-0.365-1.166-0.295l-0.25,0.069l-0.179,0.07l-0.179,0.069
	l-0.108,0.036v0.069v9.064c0,1.027,0.313,1.703,0.939,2.029h0.139h0.139v1.67h-9.809v-1.67h0.139l0.174-0.069
	c0.51-0.278,0.765-0.686,0.765-1.221l0.035-0.244v-0.384v-8.438c0-0.558-0.082-0.988-0.243-1.291
	c-0.163-0.302-0.441-0.534-0.835-0.697l-0.244-0.069L389.532,410.535z"/>
<radialGradient id="SVGID_15_" cx="430.9585" cy="420.166" r="10.7096" gradientUnits="userSpaceOnUse">
	<stop  offset="0" style="stop-color:#8E1018"/>
	<stop  offset="1" style="stop-color:#700000"/>
</radialGradient>
<path fill="url(#SVGID_15_)" d="M420.802,431.401v-1.667l0.174-0.069l0.139-0.069c0.325-0.162,0.557-0.388,0.696-0.677
	c0.139-0.29,0.208-0.735,0.208-1.337v-15.001c0-1.019-0.278-1.69-0.834-2.015l-0.174-0.069h-0.139v-1.565h9.774
	c3.177,0,5.588,0.518,7.235,1.552s2.678,2.608,3.096,4.723c0.092,0.466,0.139,0.988,0.139,1.569c0,2.068-0.756,3.834-2.268,5.299
	c-1.512,1.464-3.605,2.335-6.279,2.614h-1.57h-1.535v2.906c0,0.716,0.119,1.234,0.357,1.558c0.167,0.185,0.358,0.335,0.573,0.45
	l0.179,0.068l0.143,0.07v1.66H420.802z M429.985,422.811c0.881,0,1.57-0.364,2.069-1.093c0.499-0.729,0.817-1.901,0.957-3.521
	c0-0.416,0-0.838,0-1.266s0-0.861,0-1.301c0-1.733-0.275-2.988-0.827-3.764c-0.551-0.774-1.298-1.161-2.239-1.161h-0.482v12.139
	L429.985,422.811z"/>
<radialGradient id="SVGID_16_" cx="468.332" cy="412.1836" r="14.0526" gradientUnits="userSpaceOnUse">
	<stop  offset="0" style="stop-color:#C5263B"/>
	<stop  offset="1" style="stop-color:#910D10"/>
</radialGradient>
<path fill="url(#SVGID_16_)" d="M476.489,399.645h1.635v4.14h-1.67c-0.719-0.729-1.508-1.295-2.365-1.694
	c-1.02-0.471-2.133-0.706-3.34-0.706c-0.162,0-0.342,0-0.539,0s-0.33,0-0.398,0c-2.506,0-4.453,0.869-5.844,2.608
	c-1.484,1.879-2.227,4.626-2.227,8.244c0,3.501,0.66,6.203,1.982,8.104c1.229,1.763,2.875,2.644,4.939,2.644
	c0.162,0,0.354-0.006,0.574-0.018c0.219-0.012,0.516-0.052,0.887-0.121c0.881-0.185,1.629-0.514,2.244-0.987
	c0.613-0.474,1.129-1.027,1.547-1.662s0.678-1.207,0.783-1.715c0.104-0.508,0.156-0.958,0.156-1.352c0-1.593-0.916-2.39-2.748-2.39
	h-0.975v-1.669h12.209l-0.104,0.834c-0.604,3.734-2.33,6.552-5.184,8.453c-2.852,1.901-6.678,2.852-11.479,2.852
	c-3.641-0.302-6.51-1.246-8.607-2.835c-2.1-1.588-3.52-3.866-4.262-6.835c-0.117-0.439-0.209-0.933-0.277-1.478
	c-0.07-0.545-0.105-1.084-0.105-1.618c0-2.875,0.857-5.472,2.574-7.791c1.438-1.925,3.264-3.322,5.479-4.191s4.992-1.305,8.33-1.305
	c0.557,0,1.049,0.027,1.479,0.082s0.98,0.146,1.652,0.275l0.695,0.13l0.592,0.139l0.625,0.175l0.209,0.034h0.279
	c0.418,0,0.752-0.069,1.008-0.209l0.105-0.069L476.489,399.645z"/>
<radialGradient id="SVGID_17_" cx="494.8203" cy="416.9844" r="9.1152" gradientUnits="userSpaceOnUse">
	<stop  offset="0" style="stop-color:#C5263B"/>
	<stop  offset="1" style="stop-color:#910D10"/>
</radialGradient>
<path fill="url(#SVGID_17_)" d="M496.107,415.749v-0.452v-0.591c-0.164-1.299-0.637-2.308-1.419-3.026s-1.792-1.078-3.028-1.078
	c-0.164,0-0.339,0.012-0.526,0.034c-0.187,0.023-0.443,0.053-0.77,0.087c-0.327,0.035-0.701,0.157-1.121,0.365
	c-1.027,0.487-1.728,1.16-2.101,2.018l-1.4-0.417l1.286-3.583c0.766-0.092,1.496-0.162,2.191-0.209
	c0.696-0.046,1.461-0.069,2.296-0.069c4.476,0,7.595,0.593,9.356,1.778c1.763,1.187,2.644,3.243,2.644,6.172v4.149v0.663
	c0,0.581,0.313,1.034,0.939,1.359l0.174,0.069h0.174v1.67h-7.764l-0.932-1.565c-0.91,1.346-2.45,2.018-4.62,2.018
	c-0.63,0-1.33-0.069-2.1-0.209c-1.19-0.208-2.165-0.666-2.923-1.374c-0.759-0.707-1.254-1.617-1.487-2.73
	c-0.047-0.185-0.082-0.399-0.105-0.644c-0.023-0.243-0.035-0.457-0.035-0.643c0-1.554,0.627-2.777,1.879-3.67
	s3.037-1.339,5.356-1.339c0.695,0,1.386,0.104,2.069,0.313S495.481,415.355,496.107,415.749z M496.003,417.662
	c-0.325-0.162-0.644-0.278-0.957-0.348c-0.313-0.069-0.551-0.104-0.713-0.104c-1.137,0-1.809,0.615-2.018,1.844v0.939
	c0.209,0.928,0.766,1.473,1.67,1.635c0.487,0.093,1.055-0.047,1.704-0.418l0.174-0.104l0.104-0.104l0.14-0.139v-3.131
	L496.003,417.662z"/>
<radialGradient id="SVGID_18_" cx="520.7158" cy="416.4971" r="12.0475" gradientUnits="userSpaceOnUse">
	<stop  offset="0" style="stop-color:#C5263B"/>
	<stop  offset="1" style="stop-color:#910D10"/>
</radialGradient>
<path fill="url(#SVGID_18_)" d="M505.776,410.535v-1.639h8.974v1.079l0.521-0.278c0.742-0.371,1.432-0.667,2.07-0.888
	c0.637-0.22,1.199-0.365,1.687-0.435c0.186,0,0.388-0.012,0.608-0.034c0.221-0.023,0.377-0.035,0.47-0.035
	c1.554,0,2.713,0.499,3.479,1.495l0.174,0.209l0.14,0.209l0.695-0.452c0.557-0.324,1.159-0.614,1.809-0.87
	c1.044-0.394,2.063-0.591,3.062-0.591c1.483,0,2.678,0.431,3.582,1.293s1.356,2.027,1.356,3.495l0.035,1.188v6.64v0.769
	c0.022,0.28,0.127,0.548,0.313,0.804c0.232,0.233,0.418,0.385,0.557,0.455l0.174,0.069h0.175v1.67h-9.81v-1.67h0.144l0.145-0.069
	c0.55-0.278,0.825-0.672,0.825-1.183v-0.139v-0.661v-6.505c0-1.159-0.104-1.965-0.313-2.417c-0.208-0.452-0.568-0.679-1.078-0.679
	c-0.139,0.023-0.243,0.035-0.313,0.035l-0.244,0.069l-0.139,0.069l-0.14,0.104l-0.104,0.035v9.287v0.626v0.174
	c0.067,0.534,0.359,0.928,0.877,1.183l0.136,0.069h0.135v1.67h-9.739v-1.67h0.101l0.136-0.069c0.537-0.326,0.808-0.989,0.808-1.99
	v-6.671v-0.626v-0.521c0-0.557-0.15-0.968-0.449-1.235c-0.299-0.266-0.687-0.365-1.165-0.295l-0.25,0.069l-0.18,0.07l-0.18,0.069
	l-0.107,0.036v0.069v9.064c0,1.027,0.313,1.703,0.939,2.029h0.139h0.14v1.67h-9.81v-1.67h0.14l0.174-0.069
	c0.51-0.278,0.766-0.686,0.766-1.221l0.034-0.244v-0.384v-8.438c0-0.558-0.081-0.988-0.243-1.291
	c-0.163-0.302-0.44-0.534-0.835-0.697l-0.243-0.069L505.776,410.535z"/>
<radialGradient id="SVGID_19_" cx="547.8281" cy="416.7227" r="9.5377" gradientUnits="userSpaceOnUse">
	<stop  offset="0" style="stop-color:#C5263B"/>
	<stop  offset="1" style="stop-color:#910D10"/>
</radialGradient>
<path fill="url(#SVGID_19_)" d="M558.367,416.897h-13.113c0,0.276,0.035,0.559,0.104,0.847c0.07,0.288,0.128,0.514,0.174,0.674
	c0.371,1.314,1.072,2.352,2.104,3.112s2.197,1.141,3.496,1.141c0.648,0,1.246-0.08,1.791-0.24c0.545-0.161,1.119-0.448,1.722-0.861
	c0.255-0.184,0.499-0.373,0.73-0.568s0.452-0.419,0.661-0.671l0.452-0.552l0.174-0.275l0.174-0.275l1.322,0.795
	c-0.696,1.614-1.879,2.871-3.548,3.77c-1.67,0.898-3.804,1.349-6.4,1.349c-0.626,0-1.125-0.023-1.496-0.069
	c-0.371-0.047-0.66-0.069-0.869-0.069c-2.806-0.278-4.934-1.143-6.383-2.592s-2.174-3.368-2.174-5.757
	c0-2.551,0.753-4.557,2.261-6.018c1.601-1.553,3.872-2.33,6.817-2.33c0.186,0,0.446,0,0.783,0c0.336,0,0.573,0,0.713,0
	c0.301,0,0.597,0,0.887,0s0.585,0,0.887,0c2.505,0,4.464,0.58,5.879,1.739c1.321,1.09,2.202,2.701,2.644,4.835l0.174,1.287
	l0.034,0.382V416.897z M550.089,415.054v-0.553l-0.174-1.692c-0.093-0.483-0.174-0.835-0.243-1.053
	c-0.069-0.219-0.151-0.432-0.243-0.64c-0.325-0.621-0.87-0.933-1.635-0.933c-0.418,0-0.789,0.139-1.113,0.415
	c-0.325,0.276-0.592,0.69-0.8,1.243c-0.209,0.553-0.383,1.428-0.522,2.625v0.587H550.089z"/>
<radialGradient id="SVGID_20_" cx="567.8105" cy="416.7227" r="8.4792" gradientUnits="userSpaceOnUse">
	<stop  offset="0" style="stop-color:#C5263B"/>
	<stop  offset="1" style="stop-color:#910D10"/>
</radialGradient>
<path fill="url(#SVGID_20_)" d="M559.271,420.032l1.218-0.77l0.278,0.348l0.348,0.417c0.719,0.835,1.467,1.508,2.244,2.018
	c0.776,0.511,1.559,0.858,2.348,1.044c0.324,0.093,0.672,0.162,1.043,0.208c0.371,0.047,0.696,0.07,0.975,0.07
	c0.394,0,0.741-0.041,1.043-0.122c0.302-0.082,0.545-0.203,0.73-0.366c0.348-0.279,0.521-0.604,0.521-0.977
	c0-0.488-0.29-0.918-0.869-1.29l-0.835-0.558l-0.278-0.175c-0.765-0.464-1.414-0.871-1.947-1.22c-0.209-0.14-0.639-0.43-1.287-0.872
	c-1.577-1.115-2.552-1.83-2.922-2.144c-0.371-0.313-0.673-0.68-0.904-1.098c-0.418-0.744-0.626-1.477-0.626-2.197
	c0-0.859,0.283-1.621,0.852-2.283s1.362-1.133,2.383-1.412c0.324-0.093,0.707-0.174,1.148-0.244
	c0.439-0.069,0.938-0.104,1.495-0.104c0.231,0,0.603,0,1.113,0c0.51,0,0.916,0,1.217,0l1.009,0.278h0.14l0.974,0.209l0.452,0.069
	c0.093,0.023,0.174,0.034,0.244,0.034c0.069,0,0.115,0,0.139,0c0.278,0,0.521-0.157,0.73-0.473l0.069-0.118h1.53l1.565,3.742
	l-1.252,0.953l-0.243-0.281l-0.278-0.282l-0.626-0.599c-1.113-0.916-2.25-1.444-3.409-1.585h-0.313h-0.277h-0.244h-0.383
	c-0.208,0.022-0.382,0.081-0.521,0.174c-0.139,0.069-0.209,0.197-0.209,0.384c0,0.116,0.058,0.232,0.175,0.349
	c0.092,0.116,0.266,0.256,0.521,0.418l0.974,0.593l0.209,0.14l1.113,0.662l0.8,0.488l0.661,0.419
	c1.692,1.115,2.822,2.063,3.391,2.841c0.568,0.779,0.853,1.737,0.853,2.876c0,1.721-0.527,3.074-1.583,4.063
	c-1.055,0.988-2.638,1.481-4.748,1.481c-0.348,0-0.614,0-0.8,0c-0.533,0-1.056-0.012-1.565-0.035s-1.09-0.081-1.738-0.174
	l-0.73-0.104l-0.661-0.139c-0.163-0.046-0.377-0.039-0.644,0.021c-0.267,0.062-0.47,0.142-0.608,0.242l-0.07,0.075l-0.104,0.113
	h-1.564L559.271,420.032z"/>
<radialGradient id="SVGID_21_" cx="581.1855" cy="423.4668" r="4.9528" gradientUnits="userSpaceOnUse">
	<stop  offset="0" style="stop-color:#C5263B"/>
	<stop  offset="1" style="stop-color:#910D10"/>
</radialGradient>
<path fill="url(#SVGID_21_)" d="M577.116,427.981l0.348-0.175c1.021-0.534,1.588-1.243,1.704-2.126
	c0.023-0.116,0.035-0.291,0.035-0.523c0-0.465-0.325-1.08-0.974-1.848c-0.256-0.325-0.43-0.767-0.521-1.324
	c-0.023-0.187-0.035-0.325-0.035-0.419c0-0.487,0.115-0.999,0.348-1.533c0.395-0.953,1.078-1.615,2.053-1.987
	c0.439-0.187,0.927-0.279,1.46-0.279c1.021,0,1.896,0.354,2.627,1.063s1.096,1.598,1.096,2.667c0,1.325-0.476,2.58-1.427,3.766
	c-1.066,1.348-2.644,2.498-4.73,3.451l-1.078,0.453L577.116,427.981z"/>
<radialGradient id="SVGID_22_" cx="606.1777" cy="412.166" r="11.2553" gradientUnits="userSpaceOnUse">
	<stop  offset="0" style="stop-color:#C5263B"/>
	<stop  offset="1" style="stop-color:#910D10"/>
</radialGradient>
<path fill="url(#SVGID_22_)" d="M596.352,424.688v-1.67h0.174h0.243c0.788-0.326,1.183-1.003,1.183-2.03v-17.749
	c0-1.05-0.383-1.714-1.147-1.995h-0.209h-0.209v-1.6h11.235v1.565l-0.174,0.034h-0.209c-0.765,0.303-1.147,0.978-1.147,2.024v19.09
	h3.2c1.623,0,2.835-0.209,3.635-0.627c0.8-0.417,1.327-1.078,1.582-1.982h1.496v4.939H596.352z"/>
<radialGradient id="SVGID_23_" cx="625.9688" cy="412.166" r="11.2553" gradientUnits="userSpaceOnUse">
	<stop  offset="0" style="stop-color:#C5263B"/>
	<stop  offset="1" style="stop-color:#910D10"/>
</radialGradient>
<path fill="url(#SVGID_23_)" d="M616.143,424.688v-1.67h0.174h0.243c0.788-0.326,1.183-1.003,1.183-2.03v-17.749
	c0-1.05-0.383-1.714-1.147-1.995h-0.209h-0.209v-1.6h11.235v1.565l-0.174,0.034h-0.209c-0.765,0.303-1.147,0.978-1.147,2.024v19.09
	h3.2c1.623,0,2.835-0.209,3.635-0.627c0.8-0.417,1.327-1.078,1.582-1.982h1.496v4.939H616.143z"/>
<radialGradient id="SVGID_24_" cx="650.5078" cy="412.1143" r="13.4413" gradientUnits="userSpaceOnUse">
	<stop  offset="0" style="stop-color:#C5263B"/>
	<stop  offset="1" style="stop-color:#910D10"/>
</radialGradient>
<path fill="url(#SVGID_24_)" d="M660.978,399.645h1.704v4.521h-1.704c-1.091-1.066-2.481-1.831-4.174-2.295
	c-1.346-0.371-2.644-0.557-3.896-0.557c-2.458,0-4.405,0.729-5.843,2.188c-1.438,1.459-2.157,3.473-2.157,6.042
	c0,0.996,0.04,1.899,0.122,2.71c0.081,0.81,0.249,1.597,0.504,2.36c0.882,2.709,2.389,4.746,4.522,6.112
	c2.04,1.297,4.544,1.944,7.513,1.944c0.603,0,1.275-0.091,2.018-0.272c1.483-0.295,2.806-0.749,3.966-1.362l0.8,1.448
	c-1.763,0.943-3.942,1.668-6.539,2.174c-1.021,0.184-1.601,0.287-1.739,0.311c-0.696,0.114-1.311,0.172-1.844,0.172
	c-11.711,0-17.565-4.318-17.565-12.957c0-3.913,1.361-7.074,4.087-9.483c2.725-2.408,6.452-3.612,11.183-3.612
	c1.09,0,2.227,0.075,3.409,0.227c1.183,0.15,2.214,0.33,3.096,0.539l0.139,0.034l0.661,0.174c0.348,0.07,0.626,0.104,0.835,0.104
	c0.301,0,0.567-0.127,0.8-0.383L660.978,399.645z"/>
</svg>
